name rise31.4854peak64.571fall78.6902.mot
datacolumns 19
datarows 29
range 4.40498500000000 4.45165500000000
endheader
time	ground_force1_vx	ground_force1_vy	ground_force1_vz	ground_force1_px	ground_force1_py	ground_force1_pz	ground_force2_vx	ground_force2_vy	ground_force2_vz	ground_force2_px	ground_force2_py	ground_force2_pz	ground_torque1_x	ground_torque1_y	ground_torque1_z	ground_torque2_x	ground_torque2_y	ground_torque2_z	
4.40498500000000	-56.92383800000000	816.33883600000001	55.89245200000000	0.09488500000000	0.00000000000000	0.09890800000000	-2.42767600000000	6.92602400000000	2.70626700000000	0.00000000000000	0.00000000000000	0.00000000000000	0.00000000000000	20.72626300000000	0.00000000000000	0.00000000000000	0.92393200000000	0.00000000000000	
4.40665500000000	-57.14006300000000	814.48884899999996	55.62028100000000	0.09441700000000	0.00000000000000	0.09883700000000	-3.44114000000000	10.82730700000000	3.99405100000000	0.00000000000000	0.00000000000000	0.00000000000000	0.00000000000000	20.64522500000000	0.00000000000000	0.00000000000000	1.37819200000000	0.00000000000000	
4.40831400000000	-57.36563200000000	812.53733599999998	55.33190000000000	0.09395600000000	0.00000000000000	0.09876400000000	-4.53715400000000	15.33644000000000	5.43035400000000	0.00000000000000	0.00000000000000	0.00000000000000	0.00000000000000	20.56490100000000	0.00000000000000	0.00000000000000	1.88840900000000	0.00000000000000	
4.40999000000000	-57.60139000000000	810.48331499999995	55.02742800000000	0.09349900000000	0.00000000000000	0.09868900000000	-5.67636000000000	20.37709800000000	6.97594000000000	0.00000000000000	0.00000000000000	0.00000000000000	0.00000000000000	20.48543400000000	0.00000000000000	0.00000000000000	2.44163100000000	0.00000000000000	
4.41164800000000	-57.84813800000000	808.32576100000006	54.70698200000000	0.09304800000000	0.00000000000000	0.09861200000000	-6.81434400000000	25.84932700000000	8.58428500000000	0.34383300000000	0.00000000000000	-0.05659100000000	0.00000000000000	20.40695800000000	0.00000000000000	0.00000000000000	5.58819500000000	0.00000000000000	
4.41332100000000	-58.10662300000000	806.06361300000003	54.37068500000000	0.09260000000000	0.00000000000000	0.09853400000000	-7.90487600000000	31.63790000000000	10.20504200000000	0.34831200000000	0.00000000000000	-0.05755800000000	0.00000000000000	20.32959500000000	0.00000000000000	0.00000000000000	6.71281800000000	0.00000000000000	
4.41498900000000	-58.37753600000000	803.69575999999995	54.01866100000000	0.09215500000000	0.00000000000000	0.09845300000000	-8.90337200000000	37.62219300000000	11.78792000000000	0.35233400000000	0.00000000000000	-0.05848000000000	0.00000000000000	20.25345400000000	0.00000000000000	0.00000000000000	7.83005500000000	0.00000000000000	
4.41665400000000	-58.66150600000000	801.22104999999999	53.65103100000000	0.09171200000000	0.00000000000000	0.09837000000000	-9.77013900000000	43.68616900000000	13.28643100000000	0.35595700000000	0.00000000000000	-0.05936200000000	0.00000000000000	20.17863200000000	0.00000000000000	0.00000000000000	8.90813400000000	0.00000000000000	
4.41832200000000	-58.95909400000000	798.63828000000001	53.26792000000000	0.09127000000000	0.00000000000000	0.09828600000000	-10.47296700000000	49.72715500000000	14.66103300000000	0.35922900000000	0.00000000000000	-0.06021000000000	0.00000000000000	20.10521500000000	0.00000000000000	0.00000000000000	9.91938100000000	0.00000000000000	
4.41998100000000	-59.27078700000000	795.94619899999998	52.86945000000000	0.09082800000000	0.00000000000000	0.09820000000000	-10.98882600000000	55.66248400000000	15.88134200000000	0.36219000000000	0.00000000000000	-0.06102600000000	0.00000000000000	20.03327200000000	0.00000000000000	0.00000000000000	10.84186200000000	0.00000000000000	
4.42165000000000	-59.59699500000000	793.14350800000000	52.45574100000000	0.09038600000000	0.00000000000000	0.09811200000000	-11.30458300000000	61.43355400000000	16.92729600000000	0.36487500000000	0.00000000000000	-0.06181400000000	0.00000000000000	19.96286200000000	0.00000000000000	0.00000000000000	11.66031700000000	0.00000000000000	
4.42332300000000	-59.93804500000000	790.22885799999995	52.02691000000000	0.08994300000000	0.00000000000000	0.09802300000000	-11.41681300000000	67.00727500000001	17.78929300000000	0.36731700000000	0.00000000000000	-0.06257600000000	0.00000000000000	19.89402500000000	0.00000000000000	0.00000000000000	12.36640600000000	0.00000000000000	
4.42498300000000	-60.29417800000000	787.20085200000005	51.58307500000000	0.08949800000000	0.00000000000000	0.09793200000000	-11.33082600000000	72.37517800000001	18.46745400000000	0.36954000000000	0.00000000000000	-0.06331400000000	0.00000000000000	19.82679000000000	0.00000000000000	0.00000000000000	12.95834100000000	0.00000000000000	
4.42665600000000	-60.66554100000000	784.05804899999998	51.12434800000000	0.08905000000000	0.00000000000000	0.09783900000000	-11.05915700000000	77.55063500000000	18.97021100000000	0.37157000000000	0.00000000000000	-0.06403000000000	0.00000000000000	19.76116900000000	0.00000000000000	0.00000000000000	13.44004100000000	0.00000000000000	
4.42832300000000	-61.05218700000000	780.79896299999996	50.65084100000000	0.08859900000000	0.00000000000000	0.09774500000000	-10.61969700000000	82.56476000000001	19.31245300000000	0.37342500000000	0.00000000000000	-0.06472500000000	0.00000000000000	19.69715800000000	0.00000000000000	0.00000000000000	13.81996000000000	0.00000000000000	
4.42998600000000	-61.45406900000000	777.42206599999997	50.16266100000000	0.08814400000000	0.00000000000000	0.09765000000000	-10.03371700000000	87.46154799999999	19.51346300000000	0.37512600000000	0.00000000000000	-0.06540100000000	0.00000000000000	19.63473700000000	0.00000000000000	0.00000000000000	14.10974100000000	0.00000000000000	
4.43165100000000	-61.87103800000000	773.92579400000000	49.65991700000000	0.08768400000000	0.00000000000000	0.09755400000000	-9.32394100000000	92.29278800000000	19.59485600000000	0.37668600000000	0.00000000000000	-0.06605900000000	0.00000000000000	19.57387100000000	0.00000000000000	0.00000000000000	14.32284700000000	0.00000000000000	
4.43332200000000	-62.30283900000000	770.30854899999997	49.14271200000000	0.08722000000000	0.00000000000000	0.09745600000000	-8.51282400000000	97.11321400000000	19.57867300000000	0.37812200000000	0.00000000000000	-0.06670000000000	0.00000000000000	19.51450700000000	0.00000000000000	0.00000000000000	14.47327800000000	0.00000000000000	
4.43498100000000	-62.74910900000000	766.56870600000002	48.61115100000000	0.08675000000000	0.00000000000000	0.09735600000000	-7.62114600000000	101.97621900000000	19.48577200000000	0.37944600000000	0.00000000000000	-0.06732300000000	0.00000000000000	19.45657600000000	0.00000000000000	0.00000000000000	14.57447100000000	0.00000000000000	
4.43665400000000	-63.20937100000000	762.70461499999999	48.06533800000000	0.08627400000000	0.00000000000000	0.09725600000000	-6.66696400000000	106.93038799999999	19.33458200000000	0.38066800000000	0.00000000000000	-0.06793200000000	0.00000000000000	19.39999300000000	0.00000000000000	0.00000000000000	14.63843100000000	0.00000000000000	
4.43834200000000	-63.68304100000000	758.71460700000000	47.50537800000000	0.08579200000000	0.00000000000000	0.09715400000000	-5.66494700000000	112.01697100000000	19.14025600000000	0.38179900000000	0.00000000000000	-0.06852400000000	0.00000000000000	19.34465600000000	0.00000000000000	0.00000000000000	14.67512700000000	0.00000000000000	
4.43998500000000	-64.16941799999999	754.59700599999996	46.93137700000000	0.08530400000000	0.00000000000000	0.09705100000000	-4.62607600000000	117.26831400000000	18.91421500000000	0.38284900000000	0.00000000000000	-0.06910200000000	0.00000000000000	19.29044500000000	0.00000000000000	0.00000000000000	14.69214500000000	0.00000000000000	
4.44165200000000	-64.66768500000001	750.35012700000004	46.34344400000000	0.08480800000000	0.00000000000000	0.09694600000000	-3.55767600000000	122.70720400000000	18.66405400000000	0.38382400000000	0.00000000000000	-0.06966500000000	0.00000000000000	19.23722500000000	0.00000000000000	0.00000000000000	14.69459300000000	0.00000000000000	
4.44331600000000	-65.17691300000000	745.97229000000004	45.74169400000000	0.08430600000000	0.00000000000000	0.09684000000000	-2.46369900000000	128.34700500000000	18.39374600000000	0.38473300000000	0.00000000000000	-0.07021500000000	0.00000000000000	19.18484300000000	0.00000000000000	0.00000000000000	14.68519900000000	0.00000000000000	
4.44498200000000	-65.69605700000000	741.46182399999998	45.12624600000000	0.08379600000000	0.00000000000000	0.09673400000000	-1.34520900000000	134.19243900000001	18.10407800000000	0.38558100000000	0.00000000000000	-0.07075000000000	0.00000000000000	19.13313300000000	0.00000000000000	0.00000000000000	14.66457500000000	0.00000000000000	
4.44665200000000	-66.22395800000000	736.81708000000003	44.49722700000000	0.08327900000000	0.00000000000000	0.09662500000000	-0.20098300000000	140.24081899999999	17.79323900000000	0.38637500000000	0.00000000000000	-0.07127200000000	0.00000000000000	19.08191000000000	0.00000000000000	0.00000000000000	14.63159400000000	0.00000000000000	
4.44832100000000	-66.75934500000000	732.03643299999999	43.85477300000000	0.08275400000000	0.00000000000000	0.09651600000000	0.97182200000000	146.48357600000000	17.45750000000000	0.38711900000000	0.00000000000000	-0.07178100000000	0.00000000000000	19.03097500000000	0.00000000000000	0.00000000000000	14.58382100000000	0.00000000000000	
4.44998800000000	-67.30083600000000	727.11829699999998	43.19903000000000	0.08222300000000	0.00000000000000	0.09640500000000	2.17702400000000	152.90789400000000	17.09190300000000	0.38781800000000	0.00000000000000	-0.07227700000000	0.00000000000000	18.98011400000000	0.00000000000000	0.00000000000000	14.51797000000000	0.00000000000000	
4.45165500000000	-67.84694100000000	722.06113300000004	42.53015800000000	0.08168300000000	0.00000000000000	0.09629400000000	3.41880300000000	159.49832799999999	16.69091700000000	0.38847700000000	0.00000000000000	-0.07276000000000	0.00000000000000	18.92909900000000	0.00000000000000	0.00000000000000	14.43033300000000	0.00000000000000	
